<svg xmlns="http://www.w3.org/2000/svg" viewBox="0 0 420 420" role="img" aria-label="Branding object placeholder">
  <rect width="420" height="420" fill="none"/>
  <g filter="url(#shadow)">
    <circle cx="210" cy="210" r="120" fill="#6f9f96"/>
    <path d="M210 72c16 34 55 23 80 49 26 26 14 64 48 80-34 16-22 55-48 80-25 26-64 15-80 49-16-34-55-23-80-49-26-25-14-64-48-80 34-16 22-54 48-80 25-26 64-15 80-49z" fill="#7fb0a8"/>
    <text x="151" y="235" fill="#f2c09a" font-family="Georgia, serif" font-size="76" font-weight="700">NZ</text>
  </g>
  <defs><filter id="shadow" x="-20%" y="-20%" width="140%" height="140%"><feDropShadow dx="0" dy="18" stdDeviation="14" flood-color="#000" flood-opacity=".2"/></filter></defs>
</svg>
