<svg xmlns="http://www.w3.org/2000/svg" viewBox="0 0 420 420" role="img" aria-label="Illustration object placeholder">
  <rect width="420" height="420" fill="none"/>
  <g filter="url(#shadow)">
    <path d="M245 56c31 0 56 25 56 56v222c0 17-14 31-31 31h-50c-17 0-31-14-31-31V112c0-31 25-56 56-56z" fill="#8fb6ad"/>
    <path d="M203 118h84M203 315h84" stroke="#315f60" stroke-width="8" opacity=".42"/>
    <path d="M202 365h86l-43 37z" fill="#e9b18e"/>
    <path d="M245 56c18 0 34 8 45 20l-91 91v-55c0-31 20-56 46-56z" fill="#a8c8c1" opacity=".8"/>
  </g>
  <defs><filter id="shadow" x="-20%" y="-20%" width="140%" height="140%"><feDropShadow dx="0" dy="18" stdDeviation="14" flood-color="#000" flood-opacity=".2"/></filter></defs>
</svg>
